<svg xmlns="http://www.w3.org/2000/svg" width="210.699" height="65.642" viewBox="0 0 210.699 65.642">
    <defs>
        <linearGradient id="linear-gradient" x1=".284" y1=".469" x2="1.033" y2=".572" gradientUnits="objectBoundingBox">
            <stop offset="0" stop-color="#ff177c"/>
            <stop offset="1" stop-color="red"/>
        </linearGradient>
        <style>
            .cls-2{fill:#c11}
        </style>
    </defs>
    <g id="Group_170" data-name="Group 170" transform="translate(-19476.818 -435.57)">
        <path id="Union_1" data-name="Union 1" d="M74.161 51.785c-4.682 0-9.17-2.532-10.229-7.988-1.516-7.723 3.246-14.797-3.438-19.351-5.273-3.593-11.7-2.1-12.775-10.7C46.706 5.671 52.741 0 58.866 0h.152c6.546.1 8.489 3.173 9.662 7.139a15.989 15.989 0 0 1 .433 4.81c.1 5.909-.247 12.758 4.6 15.71.745.45 6.507 3.234 6.586 3.278a9.332 9.332 0 0 1 5.994 8.714v.06c.426 7.759-6.017 12.075-12.129 12.075zm-31.87 0c-4.682 0-9.17-2.532-10.229-7.988-1.5-7.706 3.26-14.792-3.437-19.351-5.273-3.593-11.7-2.1-12.775-10.7C14.836 5.671 20.858 0 27 0h.152c6.546.1 8.494 3.173 9.667 7.139a15.976 15.976 0 0 1 .433 4.81c.1 5.909-.247 12.758 4.6 15.71.745.45 6.507 3.234 6.584 3.277a9.329 9.329 0 0 1 5.984 8.714v.06c.426 7.759-6.017 12.075-12.129 12.075zM54.416 39.71a.261.261 0 0 0 0-.06zM0 39.749a11.83 11.83 0 0 1 11.61-12.035 11.824 11.824 0 0 1 11.61 12.035 11.824 11.824 0 0 1-11.61 12.035A11.825 11.825 0 0 1 0 39.749z" transform="translate(19476.818 438.765)" style="fill:url(#linear-gradient)"/>
        <path id="Path_4" data-name="Path 4" class="cls-2" d="M229.513 139.833h-1.926v5.372a3.463 3.463 0 0 1-.567.061 3.555 3.555 0 0 1-.554-.061v-5.372h-1.939a2.307 2.307 0 0 1 0-1.013h4.987a2.026 2.026 0 0 1 .061.507 2.1 2.1 0 0 1-.061.507" transform="translate(19347.436 355.854)"/>
        <path id="Path_5" data-name="Path 5" class="cls-2" d="M246.411 138.759v6.368a2.429 2.429 0 0 1-.537.061 3.243 3.243 0 0 1-.593-.061V142.4h-3.03v2.723a2.765 2.765 0 0 1-.563.061 2.856 2.856 0 0 1-.558-.061v-6.368a1.9 1.9 0 0 1 .537-.061 2.164 2.164 0 0 1 .584.061v2.6h3.03v-2.6a2.866 2.866 0 0 1 .563-.061 2.775 2.775 0 0 1 .567.061" transform="translate(19337.988 355.924)"/>
        <path id="Path_6" data-name="Path 6" class="cls-2" d="M263.952 144.663a1.964 1.964 0 0 1-.069.528h-4.173v-6.381h4.082a2.3 2.3 0 0 1 .061.519 2.19 2.19 0 0 1-.061.507h-2.961v1.58h2.632a2.249 2.249 0 0 1 .061.507 2.313 2.313 0 0 1-.061.507h-2.632v1.732h3.052a1.683 1.683 0 0 1 .069.485" transform="translate(19327.451 355.86)"/>
        <path id="Path_7" data-name="Path 7" class="cls-2" d="M286.692 145.041a2.078 2.078 0 0 1-.706.108 2.351 2.351 0 0 1-.468-.039l-.567-1.537h-2.5l-.545 1.532a2.982 2.982 0 0 1-.506.039 1.55 1.55 0 0 1-.628-.108l2.372-6.312a2.467 2.467 0 0 1 .589-.056 2.251 2.251 0 0 1 .567.056zm-2.087-2.416-.736-1.987-.177-.584-.182.584-.714 1.987z" transform="translate(19315.51 355.941)"/>
        <path id="Path_8" data-name="Path 8" class="cls-2" d="M304.057 144.966a3.463 3.463 0 0 1-.9.1 1.907 1.907 0 0 1-.355 0l-1.42-2.364H300.3v2.364a2.74 2.74 0 0 1-.567.061 2.874 2.874 0 0 1-.567-.061v-6.338a10.411 10.411 0 0 1 2.035-.208c1.771 0 2.537.788 2.537 1.978a2 2 0 0 1-1.242 1.918zm-2.792-3.247c.952 0 1.333-.5 1.333-1.143s-.433-1.065-1.342-1.065c-.329 0-.645.022-.952.052v2.137h.961" transform="translate(19305.074 356.025)"/>
        <path id="Path_9" data-name="Path 9" class="cls-2" d="M318.788 139.833h-1.931v5.372a3.465 3.465 0 0 1-.563.061 3.6 3.6 0 0 1-.558-.061v-5.372H313.8a2.164 2.164 0 0 1 0-1.013h4.987a2.241 2.241 0 0 1 .056.507 2.329 2.329 0 0 1-.056.507" transform="translate(19296.811 355.854)"/>
        <path id="Path_10" data-name="Path 10" class="cls-2" d="M336.795 141.747a3.279 3.279 0 1 1 3.255 3.359 3.208 3.208 0 0 1-3.255-3.359m5.3 0a2.06 2.06 0 1 0-2.048 2.3 2.065 2.065 0 0 0 2.048-2.3" transform="translate(19283.74 356.105)"/>
        <path id="Path_11" data-name="Path 11" class="cls-2" d="M358.451 139.85v1.85h2.6a2.493 2.493 0 0 1 0 1.013h-2.6v2.487a2.7 2.7 0 0 1-.563.061 2.787 2.787 0 0 1-.558-.061v-6.38h4.043a2.811 2.811 0 0 1 0 1.03z" transform="translate(19272.092 355.854)"/>
        <path id="Path_12" data-name="Path 12" class="cls-2" d="M382.223 139.833H380.3v5.372a3.462 3.462 0 0 1-.567.061 3.557 3.557 0 0 1-.554-.061v-5.372h-1.939a2.307 2.307 0 0 1 0-1.013h4.987a2.025 2.025 0 0 1 .074.511 2.1 2.1 0 0 1-.061.507" transform="translate(19260.836 355.854)"/>
        <path id="Path_13" data-name="Path 13" class="cls-2" d="M398.122 144.663a1.965 1.965 0 0 1-.069.528h-4.173v-6.381h4.082a2.3 2.3 0 0 1 .061.519 2.192 2.192 0 0 1-.061.507H395v1.58h2.632a2.027 2.027 0 0 1 .061.507 2.074 2.074 0 0 1-.061.507H395v1.732h3.03a1.682 1.682 0 0 1 .069.485" transform="translate(19251.365 355.86)"/>
        <path id="Path_14" data-name="Path 14" class="cls-2" d="M413.137 144.6a2.524 2.524 0 0 1-.061.519h-3.9v-6.381a2.674 2.674 0 0 1 .554-.056 2.771 2.771 0 0 1 .567.056v5.362h2.784a2.136 2.136 0 0 1 .061.493" transform="translate(19242.688 355.934)"/>
        <path id="Path_15" data-name="Path 15" class="cls-2" d="M427.442 144.663a1.806 1.806 0 0 1-.069.528H423.2v-6.381h4.082a2.082 2.082 0 0 1 .061.519 1.979 1.979 0 0 1-.061.507h-2.957v1.58h2.632a2.241 2.241 0 0 1 .052.507 2.3 2.3 0 0 1-.056.507h-2.632v1.732h3.03a1.544 1.544 0 0 1 .069.485" transform="translate(19234.738 355.86)"/>
        <path id="Path_16" data-name="Path 16" class="cls-2" d="M437.306 141.754a3.229 3.229 0 0 1 3.277-3.377 3.113 3.113 0 0 1 1.957.6 1.3 1.3 0 0 1-.615.866 2.212 2.212 0 0 0-1.32-.433 2.082 2.082 0 0 0-2.087 2.316 2.045 2.045 0 0 0 2.035 2.294 2.074 2.074 0 0 0 1.472-.476 1.147 1.147 0 0 1 .6.866 3.078 3.078 0 0 1-2.1.658 3.12 3.12 0 0 1-3.216-3.359" transform="translate(19226.74 356.107)"/>
        <path id="Path_17" data-name="Path 17" class="cls-2" d="M453.295 141.747a3.282 3.282 0 1 1 3.26 3.359 3.208 3.208 0 0 1-3.26-3.359m5.307 0a2.062 2.062 0 1 0-2.048 2.3 2.065 2.065 0 0 0 2.048-2.3" transform="translate(19217.674 356.105)"/>
        <path id="Path_18" data-name="Path 18" class="cls-2" d="M480.15 138.777v6.351a2.671 2.671 0 0 1-.528.061 2.837 2.837 0 0 1-.545-.061v-3.489l.052-.922-.169.476-1.45 3.359a3.087 3.087 0 0 1-.5.039 3.14 3.14 0 0 1-.489-.039l-1.5-3.381-.182-.433.043.913v3.489a2.333 2.333 0 0 1-1.056 0v-6.364a2.433 2.433 0 0 1 .606-.078 2.671 2.671 0 0 1 .55.048l1.965 4.3.121.32.1-.32 1.844-4.3a3.283 3.283 0 0 1 .537-.039 2.6 2.6 0 0 1 .6.069" transform="translate(19206.025 355.923)"/>
        <path id="Path_19" data-name="Path 19" d="M254.858 19.523v11.736a18.652 18.652 0 0 1-5.887 0V20.817c0-2.312-1.1-3.528-3.294-3.528a5.052 5.052 0 0 0-3.139 1.056c.039.394.078.788.078 1.178v11.736a18.78 18.78 0 0 1-2.944.234 17.892 17.892 0 0 1-2.9-.234V20.817c0-2.312-1.139-3.528-3.338-3.528a5.771 5.771 0 0 0-3.03.784v13.186a18.7 18.7 0 0 1-2.944.234 18.3 18.3 0 0 1-2.9-.234V15.09a15.388 15.388 0 0 1 9.42-3.1 9.63 9.63 0 0 1 6.061 1.766 11.688 11.688 0 0 1 6.195-1.762c5.849 0 8.632 3.178 8.632 7.533" transform="translate(19347.391 427.779)"/>
        <path id="Path_20" data-name="Path 20" d="M301.54 21.957c0-6 4.329-9.957 10.247-9.957s10.165 3.9 10.165 9.957c0 5.965-4.329 9.931-10.247 9.931s-10.165-3.762-10.165-9.931m14.524 0c0-3.061-1.571-5.061-4.329-5.061s-4.346 2-4.346 5.061 1.61 5.065 4.359 5.065 4.329-2.039 4.329-5.065" transform="translate(19303.73 427.774)"/>
        <path id="Path_21" data-name="Path 21" d="M374.257 19.955v11.3a18.317 18.317 0 0 1-5.887 0V20.9c0-2.671-1.455-3.61-3.533-3.61a6.294 6.294 0 0 0-3.139.766v13.2a18.788 18.788 0 0 1-2.944.238 18.216 18.216 0 0 1-2.9-.238V15.09a14.587 14.587 0 0 1 9.42-3.1c6.2 0 8.987 3.372 8.987 7.965" transform="translate(19272.932 427.779)"/>
        <path id="Path_22" data-name="Path 22" d="M420.358 24.264a9.3 9.3 0 0 1-6.061 2.082c-4.277 0-7.5-1.805-7.5-6.359v-7.792h-3.16a15.723 15.723 0 0 1-.2-2.433 16.054 16.054 0 0 1 .2-2.355h3.178V2.524a19.614 19.614 0 0 1 2.985-.234 16.948 16.948 0 0 1 2.827.234v4.9h6.494a11.443 11.443 0 0 1 .273 2.316 12.945 12.945 0 0 1-.273 2.472h-6.494v6.32c0 2.117.983 2.827 2.706 2.827a3.948 3.948 0 0 0 2.6-1.1 5.963 5.963 0 0 1 2.433 4" transform="translate(19245.943 433.28)"/>
        <path id="Path_23" data-name="Path 23" d="M465.41 13.722c-1.61 11.892-6.165 20.632-14.563 26.65a6 6 0 0 1-3.494-4.043 27.951 27.951 0 0 0 5.1-4.944c-3.805-5.887-5.533-10.987-6.987-17.7a21.987 21.987 0 0 1 4.277-.433 20.191 20.191 0 0 1 2.2.117 56.314 56.314 0 0 0 3.61 12.675 7.6 7.6 0 0 1 .394 1.061 5.777 5.777 0 0 1 .312-1.061 48.888 48.888 0 0 0 3.061-12.675 23.114 23.114 0 0 1 2.316-.117 15.554 15.554 0 0 1 3.771.468" transform="translate(19222.107 427.065)"/>
        <path id="Path_24" data-name="Path 24" d="M254.128 89.511v11.515a18.286 18.286 0 0 1-5.775 0V90.784c0-2.273-1.078-3.463-3.234-3.463a4.966 4.966 0 0 0-3.082 1.039 11.519 11.519 0 0 1 .078 1.156v11.515a18.585 18.585 0 0 1-2.887.229 17.749 17.749 0 0 1-2.853-.229V90.784c0-2.273-1.117-3.463-3.273-3.463a5.671 5.671 0 0 0-2.965.771v12.94a18.5 18.5 0 0 1-2.887.229 18.053 18.053 0 0 1-2.849-.229V85.16a15.06 15.06 0 0 1 9.242-3.03 9.55 9.55 0 0 1 5.97 1.732 11.476 11.476 0 0 1 6.061-1.732c5.74 0 8.472 3.121 8.472 7.394" transform="translate(19347.477 388.003)"/>
        <path id="Path_25" data-name="Path 25" d="M299.92 91.884c0-5.892 4.238-9.784 10.052-9.784s9.957 3.814 9.957 9.784c0 5.853-4.238 9.74-10.052 9.74s-9.957-3.7-9.957-9.74m14.251 0c0-3-1.541-4.97-4.238-4.97s-4.273 1.965-4.273 4.97 1.576 4.965 4.273 4.965 4.238-2 4.238-4.965" transform="translate(19304.648 388.02)"/>
        <path id="Path_26" data-name="Path 26" d="M372.229 83.009c0 6.2-4.195 9.957-10.823 9.957a17.938 17.938 0 0 1-8.086-1.766V67.026a14.584 14.584 0 0 1 2.849-.229 14.766 14.766 0 0 1 2.887.229V74a9.382 9.382 0 0 1 3.121-.459c5.723 0 10.052 3.273 10.052 9.472m-5.775.229c0-2.771-1.654-4.762-4.658-4.762a8.017 8.017 0 0 0-2.736.463v8.723a9.135 9.135 0 0 0 2.736.433c2.965 0 4.658-1.887 4.658-4.853" transform="translate(19274.365 396.7)"/>
        <path id="Path_27" data-name="Path 27" d="M403 65.553a3.463 3.463 0 1 1 3.463 3.463A3.463 3.463 0 0 1 403 65.553m.58 24.108V71.367a17.689 17.689 0 0 1 2.849-.229 19.321 19.321 0 0 1 2.887.229v18.295a17.814 17.814 0 0 1-2.887.229 18.429 18.429 0 0 1-2.849-.229" transform="translate(19246.193 399.368)"/>
        <path id="Path_28" data-name="Path 28" d="M427.13 92.435V67.209a16.882 16.882 0 0 1 2.81-.229 19.913 19.913 0 0 1 2.965.229v25.226a17.315 17.315 0 0 1-2.848.229 19.429 19.429 0 0 1-2.926-.229" transform="translate(19232.51 396.595)"/>
        <path id="Path_29" data-name="Path 29" d="M465.882 93.505h-12.169c.346 2.6 1.771 3.736 4.507 3.736a9.512 9.512 0 0 0 5.39-1.849 5.814 5.814 0 0 1 2.078 3.9 12.721 12.721 0 0 1-8.087 2.6c-5.658 0-9.74-3.507-9.74-9.628 0-5.775 4.082-9.818 9.55-9.818 5.16 0 8.658 3.273 8.658 8.394a16.18 16.18 0 0 1-.19 2.7m-5.238-3.238a3.168 3.168 0 0 0-3.195-3.5 3.619 3.619 0 0 0-3.736 3.5z" transform="translate(19220.754 387.827)"/>
    </g>
</svg>
