<svg xmlns="http://www.w3.org/2000/svg" xmlns:xlink="http://www.w3.org/1999/xlink" id="Monty_Mobile_Logo-01" width="230.753" height="73.348" viewBox="0 0 230.753 73.348">
    <defs>
        <radialGradient id="radial-gradient" cx=".5" cy=".5" r=".491" gradientTransform="translate(-0.018) scale(1.037 1)" gradientUnits="objectBoundingBox">
            <stop offset=".397" stop-color="#e52826"/>
            <stop offset="1" stop-color="#dc0d15"/>
        </radialGradient>
        <radialGradient id="radial-gradient-2" cx=".5" cy=".5" r=".441" gradientTransform="translate(-0.169) scale(1.338 1)" xlink:href="#radial-gradient"/>
        <radialGradient id="radial-gradient-3" cx=".5" cy=".5" r=".441" gradientTransform="translate(-0.169) scale(1.338 1)" xlink:href="#radial-gradient"/>
        <style>
            .cls-1{fill:#fff}
        </style>
    </defs>
    <path id="Path_10996" d="M628.9 128.015a1.035 1.035 0 0 1 .314-.506.835.835 0 0 1 .575-.209h5.581a.623.623 0 0 1 .68.61l2.075 14.666 6.749-14.666a1.01 1.01 0 0 1 .924-.61h5.528a.633.633 0 0 1 .488.209.657.657 0 0 1 .192.506q-.34 5.676-.628 11.283t-.628 11.283l-.018.087a.707.707 0 0 1-.8.628h-4.572c-.488 0-.715-.244-.663-.715l.576-12.486-5.633 12.574a1.031 1.031 0 0 1-.3.384.628.628 0 0 1-.436.227h-4.255a.508.508 0 0 1-.384-.227.62.62 0 0 1-.174-.4l-1.657-12.539-3.383 12.451a.835.835 0 0 1-.907.715h-4.569c-.471 0-.663-.244-.576-.715z" class="cls-1" transform="translate(-523.252 -126.934)"/>
    <path id="Path_10997" d="M809.762 137.582a13.722 13.722 0 0 1 .959-3.3 15.161 15.161 0 0 1 4.046-5.476 15.466 15.466 0 0 1 2.808-1.936 14.7 14.7 0 0 1 3.139-1.238 12.825 12.825 0 0 1 3.366-.436 11.324 11.324 0 0 1 3.209.436 10.705 10.705 0 0 1 2.755 1.238 9.328 9.328 0 0 1 2.2 1.936 9.7 9.7 0 0 1 1.535 2.511 11.584 11.584 0 0 1 .785 2.965 12.363 12.363 0 0 1-.07 3.3 13.722 13.722 0 0 1-.959 3.3 16.023 16.023 0 0 1-1.709 2.947 15.673 15.673 0 0 1-2.319 2.494 16.1 16.1 0 0 1-2.807 1.936 13.656 13.656 0 0 1-3.157 1.238 12.786 12.786 0 0 1-3.348.436 11.359 11.359 0 0 1-3.226-.436 10.394 10.394 0 0 1-2.755-1.238 9.735 9.735 0 0 1-2.2-1.936 9.6 9.6 0 0 1-1.535-2.494 10.057 10.057 0 0 1-.785-2.947 11.684 11.684 0 0 1 .068-3.3zm6.26 0a6.711 6.711 0 0 0 .052 2.511 5.031 5.031 0 0 0 .942 2.023 4.848 4.848 0 0 0 1.709 1.36 5.441 5.441 0 0 0 2.372.488 6.617 6.617 0 0 0 2.546-.488 7.234 7.234 0 0 0 2.145-1.36 7.837 7.837 0 0 0 1.587-2.023 7.642 7.642 0 0 0 .854-2.511 6.61 6.61 0 0 0-.052-2.494 4.993 4.993 0 0 0-.942-2.04 4.8 4.8 0 0 0-1.726-1.378 5.47 5.47 0 0 0-2.389-.506 6.481 6.481 0 0 0-2.529.506 6.952 6.952 0 0 0-2.145 1.378 7.772 7.772 0 0 0-2.424 4.534z" class="cls-1" transform="translate(-677.331 -125.2)"/>
    <path id="Path_10998" d="M968.512 127.932a.947.947 0 0 1 .262-.506.763.763 0 0 1 .558-.209h5.284a1.074 1.074 0 0 1 .453.1.872.872 0 0 1 .366.384c1.011 2.215 2.023 4.377 3.034 6.522s2.023 4.325 3.052 6.522l2.058-12.94a1 1 0 0 1 .331-.453.8.8 0 0 1 .471-.157h4.6a.786.786 0 0 1 .541.192.534.534 0 0 1 .139.523l-3.592 22.653a.705.705 0 0 1-.262.471.92.92 0 0 1-.558.157h-5.162a.487.487 0 0 1-.349-.139 2.447 2.447 0 0 1-.279-.384c-1.064-2.372-2.11-4.708-3.139-7.028s-2.093-4.656-3.156-7.028l-2.2 13.881a.92.92 0 0 1-.244.541.852.852 0 0 1-.61.174h-4.58a.556.556 0 0 1-.506-.209.658.658 0 0 1-.087-.488z" class="cls-1" transform="translate(-805.562 -126.851)"/>
    <path id="Path_10999" d="M1126.2 128.015a.885.885 0 0 1 .3-.523.951.951 0 0 1 .576-.192h17.386a.7.7 0 0 1 .488.174.59.59 0 0 1 .174.523l-.628 4.011a1.032 1.032 0 0 1-.3.558.791.791 0 0 1-.61.262h-5.581l-2.808 17.683a.894.894 0 0 1-.3.523.814.814 0 0 1-.593.227h-4.743a.643.643 0 0 1-.488-.227.6.6 0 0 1-.157-.541l2.808-17.683h-5.563a.645.645 0 0 1-.505-.209.75.75 0 0 1-.122-.61z" class="cls-1" transform="translate(-938.157 -126.934)"/>
    <path id="Path_11000" d="M1257.859 136.242l5.232-8.353a2.843 2.843 0 0 1 .209-.279.483.483 0 0 1 .157-.122.457.457 0 0 1 .14-.052.768.768 0 0 0 .174-.035H1270a.2.2 0 0 1 .175.07.3.3 0 0 1 .052.174.721.721 0 0 1-.3.4l-9.8 13.55-1.43 9.033a.8.8 0 0 1-.854.767h-4.831a.55.55 0 0 1-.471-.209.712.712 0 0 1-.087-.558l1.43-9.068-5.493-13.515a.443.443 0 0 1-.14-.4.332.332 0 0 1 .087-.174.262.262 0 0 1 .192-.07h6.225a.771.771 0 0 0 .174.035.19.19 0 0 1 .122.052.791.791 0 0 1 .1.122c.035.052.07.157.139.279z" class="cls-1" transform="translate(-1039.47 -127.016)"/>
    <path id="Path_11001" d="M603.48 288.815a1.036 1.036 0 0 1 .314-.506.835.835 0 0 1 .575-.209h5.6a.623.623 0 0 1 .68.61l2.075 14.666 6.749-14.666a1.01 1.01 0 0 1 .924-.61h5.511a.634.634 0 0 1 .488.209.657.657 0 0 1 .192.506q-.34 5.676-.628 11.283t-.628 11.283l-.018.087a.707.707 0 0 1-.8.628h-4.569c-.488 0-.715-.244-.663-.715l.576-12.486-5.633 12.573a1.028 1.028 0 0 1-.3.384.628.628 0 0 1-.436.227h-4.255a.507.507 0 0 1-.384-.227.621.621 0 0 1-.174-.4l-1.657-12.539-3.383 12.451a.835.835 0 0 1-.907.715h-4.552c-.471 0-.663-.244-.576-.715z" class="cls-1" transform="translate(-502.282 -259.692)"/>
    <path id="Path_11002" d="M784.262 298.382a13.728 13.728 0 0 1 .959-3.3 15.161 15.161 0 0 1 4.046-5.476 15.463 15.463 0 0 1 2.808-1.936 14.7 14.7 0 0 1 3.139-1.238 12.825 12.825 0 0 1 3.366-.432 11.988 11.988 0 0 1 3.209.436 10.706 10.706 0 0 1 2.755 1.238 9.329 9.329 0 0 1 2.2 1.936 9.709 9.709 0 0 1 1.535 2.511 11.59 11.59 0 0 1 .785 2.965 12.375 12.375 0 0 1-.07 3.3 13.721 13.721 0 0 1-.959 3.3 16.017 16.017 0 0 1-1.709 2.947 15.664 15.664 0 0 1-2.326 2.486 16.1 16.1 0 0 1-2.808 1.936 13.651 13.651 0 0 1-3.157 1.238 12.789 12.789 0 0 1-3.348.436 11.361 11.361 0 0 1-3.226-.436 10.4 10.4 0 0 1-2.755-1.238 9.735 9.735 0 0 1-2.2-1.936 9.6 9.6 0 0 1-1.535-2.494 10.054 10.054 0 0 1-.785-2.947 11.682 11.682 0 0 1 .076-3.296zm6.261 0a6.708 6.708 0 0 0 .052 2.511 5.03 5.03 0 0 0 .942 2.023 4.849 4.849 0 0 0 1.709 1.36 5.442 5.442 0 0 0 2.372.488 6.618 6.618 0 0 0 2.546-.488 7.235 7.235 0 0 0 2.145-1.36 7.842 7.842 0 0 0 1.587-2.023 7.641 7.641 0 0 0 .854-2.511 6.616 6.616 0 0 0-.052-2.494 5 5 0 0 0-.942-2.04 4.8 4.8 0 0 0-1.727-1.378 5.468 5.468 0 0 0-2.389-.506 6.482 6.482 0 0 0-2.529.506 6.947 6.947 0 0 0-2.145 1.378 7.769 7.769 0 0 0-2.424 4.534z" class="cls-1" transform="translate(-656.277 -257.958)"/>
    <path id="Path_11003" d="M942.678 288.85a.859.859 0 0 1 .279-.541.764.764 0 0 1 .558-.209h10.725a6.085 6.085 0 0 1 2.6.541 5.6 5.6 0 0 1 1.971 1.482 5.966 5.966 0 0 1 1.151 2.215 6.425 6.425 0 0 1 .122 2.721 7.1 7.1 0 0 1-.732 2.25 7.284 7.284 0 0 1-1.378 1.866 6.406 6.406 0 0 1 1.448 2.529 6.916 6.916 0 0 1 .192 3.122 7.921 7.921 0 0 1-1.012 2.79 9.7 9.7 0 0 1-1.9 2.3 8.857 8.857 0 0 1-2.494 1.57 7.2 7.2 0 0 1-2.791.575h-11.686a.621.621 0 0 1-.488-.174.611.611 0 0 1-.1-.523zm10.533 15.75a2.637 2.637 0 0 0-.035-.977 2.19 2.19 0 0 0-.384-.872 2.431 2.431 0 0 0-.7-.628 1.912 1.912 0 0 0-.959-.244h-4.272l-.855 5.389h4.273a2.386 2.386 0 0 0 1.029-.227 3.108 3.108 0 0 0 .89-.61 3.605 3.605 0 0 0 .663-.872 2.534 2.534 0 0 0 .35-.959zm.628-9.382a2.229 2.229 0 0 0-.035-.907 2.038 2.038 0 0 0-.383-.75 1.9 1.9 0 0 0-.7-.506 2.412 2.412 0 0 0-.959-.192h-3.47l-.75 4.691h3.418a3 3 0 0 0 1.046-.174 2.432 2.432 0 0 0 .855-.488 2.933 2.933 0 0 0 .628-.75 2.272 2.272 0 0 0 .35-.927z" class="cls-1" transform="translate(-784.262 -259.692)"/>
    <path id="Path_11004" d="M1073.666 288.815a.947.947 0 0 1 .262-.506.763.763 0 0 1 .558-.209h4.743a.826.826 0 0 1 .488.192.518.518 0 0 1 .192.523l-3.557 22.566a.8.8 0 0 1-.907.715h-4.745c-.471 0-.68-.244-.593-.715z" class="cls-1" transform="translate(-892.388 -259.692)"/>
    <path id="Path_11005" d="M1136.083 288.715a.863.863 0 0 1 .279-.506.822.822 0 0 1 .558-.209h4.778a.706.706 0 0 1 .471.192.583.583 0 0 1 .157.523l-2.79 17.579h8.894a.645.645 0 0 1 .471.192.611.611 0 0 1 .122.541l-.68 4.255a1.082 1.082 0 0 1-.261.506.789.789 0 0 1-.558.244H1133.1c-.471 0-.68-.244-.593-.715z" class="cls-1" transform="translate(-943.906 -259.609)"/>
    <path id="Path_11006" d="M1248.513 288.85a.856.856 0 0 1 .279-.541.763.763 0 0 1 .558-.209h16.026a.635.635 0 0 1 .523.209.728.728 0 0 1 .1.558l-.628 3.993a1.1 1.1 0 0 1-.279.523.754.754 0 0 1-.61.244h-10.463l-.628 4.011h8.074a.812.812 0 0 1 .488.14.493.493 0 0 1 .122.488l-.558 3.488a.741.741 0 0 1-.244.436.764.764 0 0 1-.558.209h-8.109l-.663 4.133h10.865c.488 0 .68.244.61.732l-.645 4.063a.483.483 0 0 1-.174.3.667.667 0 0 1-.732.453h-16.34a.621.621 0 0 1-.488-.174.611.611 0 0 1-.1-.523z" class="cls-1" transform="translate(-1036.734 -259.692)"/>
    <g id="Group_14729" transform="translate(0 0.016)">
        <path id="Path_11007" fill="url(#radial-gradient)" d="M74.747 299.36a11.831 11.831 0 1 1-11.823-12.26 12.044 12.044 0 0 1 11.823 12.26z" transform="translate(-51.1 -258.882)"/>
        <path id="Path_11008" fill="url(#radial-gradient-2)" fill-rule="evenodd" d="M164.416 132.565c-1.186-4.028-3.174-7.167-9.836-7.272-6.3-.1-12.539 5.7-11.51 14 1.1 8.754 7.638 7.237 13.009 10.9 6.819 4.639 1.971 11.859 3.505 19.706 2.494 12.835 23.595 9.783 22.775-4.22.017-.244 0 .244 0 0a9.538 9.538 0 0 0-6.1-8.876 1.742 1.742 0 0 0-.244-.14 2.96 2.96 0 0 0-.419-.244 3.4 3.4 0 0 0-.558-.244c-.331-.157-.645-.279-.942-.4l-4.482-2.285a10.968 10.968 0 0 0 1.011.558 1.042 1.042 0 0 0 .14.07c.209.052.436.227 0 0-.07-.017 0 0-.052-.017-.035-.017-.052-.035-.087-.052-.575-.3-.3-.157-1.273-.68l.262.139c-4.918-3.122-4.639-9.993-4.743-16.044a16.3 16.3 0 0 0-.456-4.899z" transform="translate(-126.939 -125.292)"/>
        <path id="Path_11009" fill="url(#radial-gradient-3)" fill-rule="evenodd" d="M350.616 132.565c-1.133-4.046-3.174-7.167-9.836-7.272-6.3-.1-12.539 5.72-11.51 14 1.1 8.754 7.638 7.237 13.009 10.9 6.819 4.639 1.971 11.859 3.505 19.706 2.494 12.835 23.595 9.783 22.775-4.22.017-.244 0 .244 0 0a9.538 9.538 0 0 0-6.1-8.876c-.087-.052-.157-.1-.227-.14a2.951 2.951 0 0 0-.419-.244 3.4 3.4 0 0 0-.558-.244c-.331-.157-.645-.279-.942-.4l-4.517-2.285a10.978 10.978 0 0 0 1.012.558c.052.017.087.052.139.07.209.052.436.227 0 0l-.07-.017c-.035-.017-.052-.035-.087-.052-.576-.3-.3-.157-1.273-.68l.262.14c-4.918-3.122-4.639-9.993-4.743-16.044a18.06 18.06 0 0 0-.42-4.9z" transform="translate(-280.668 -125.292)"/>
    </g>
    <path id="Path_11010" d="M631.381 494.807H628.8l.174-.907h6.191l-.174.907h-2.581l-1.587 7.952h-1.046z" class="cls-1" transform="translate(-528.055 -429.603)"/>
    <path id="Path_11011" d="M673.918 489.6h1.029l-.645 3.174-.227.837h.052a3.634 3.634 0 0 1 2.25-1.116c1.1 0 1.552.628 1.552 1.639a4.4 4.4 0 0 1-.1.907l-.837 4.185h-1.029l.82-4.046a3.756 3.756 0 0 0 .1-.767c0-.663-.3-1.011-.976-1.011a3.166 3.166 0 0 0-1.971 1.186l-.924 4.639H672z" class="cls-1" transform="translate(-563.721 -426.052)"/>
    <path id="Path_11012" d="M724.787 506.2c1.482 0 2.04 1.029 2.04 2.372a3.887 3.887 0 0 1-.244 1.273h-4.255c-.244 1.692.645 2.406 1.779 2.406a2.613 2.613 0 0 0 1.482-.575l.4.68a3.646 3.646 0 0 1-2.128.7 2.45 2.45 0 0 1-2.563-2.738 3.867 3.867 0 0 1 3.489-4.118zm1.081 2.947a2.666 2.666 0 0 0 .07-.663c0-.75-.332-1.465-1.273-1.465a2.554 2.554 0 0 0-2.232 2.128z" class="cls-1" transform="translate(-604.423 -439.758)"/>
    <path id="Path_11013" d="M788.113 493.9h1.2l1.029 8.859h-1.1l-.453-5.092c-.07-.942-.174-1.883-.244-2.895h-.045c-.471 1.011-.924 1.918-1.413 2.895l-2.616 5.092H783.3zm-2.441 5.284h3.889l-.192.82h-3.906z" class="cls-1" transform="translate(-655.612 -429.603)"/>
    <path id="Path_11014" d="M839.19 506.357h.854l-.157 1.255h.052a2.625 2.625 0 0 1 2.04-1.413 1.441 1.441 0 0 1 .628.122l-.366.924a1.274 1.274 0 0 0-.558-.1c-.645 0-1.377.575-1.935 1.657l-.82 4.133H837.9z" class="cls-1" transform="translate(-700.69 -439.757)"/>
    <path id="Path_11015" d="M875.222 503.863a4.719 4.719 0 0 1 .07-.715l.767-3.7h-.959l.157-.767 1.029-.07.488-1.814h.872l-.366 1.814h1.657l-.174.837h-1.691l-.772 3.752a2.208 2.208 0 0 0-.052.488c0 .541.209.82.837.82a1.556 1.556 0 0 0 .7-.209l.227.75a2.868 2.868 0 0 1-1.238.3 1.376 1.376 0 0 1-1.552-1.486z" class="cls-1" transform="translate(-731.403 -431.997)"/>
    <path id="Path_11016" d="M932.1 498.476c0-2.7 1.779-5.476 4.307-5.476 1.971 0 3.069 1.465 3.069 3.715 0 2.7-1.779 5.476-4.307 5.476-1.969-.001-3.069-1.483-3.069-3.715zm6.313-1.692c0-1.726-.645-2.877-2.04-2.877-1.9 0-3.191 2.407-3.191 4.482 0 1.726.645 2.877 2.04 2.877 1.9.017 3.191-2.389 3.191-4.482z" class="cls-1" transform="translate(-778.463 -428.859)"/>
    <path id="Path_11017" d="M988.853 491.9l.872-.07.209-1.1c.262-1.325.977-2.128 2.075-2.128a2.245 2.245 0 0 1 1.169.331l-.366.75a1.289 1.289 0 0 0-.715-.227c-.593 0-.977.488-1.116 1.256l-.227 1.116h1.325l-.174.837h-1.343l-1.134 5.72H988.4l1.151-5.72h-.851z" class="cls-1" transform="translate(-824.945 -425.227)"/>
    <path id="Path_11018" d="M1048.481 494.807h-2.581l.174-.907h6.191l-.174.907h-2.581l-1.587 7.952h-1.046z" class="cls-1" transform="translate(-872.417 -429.603)"/>
    <path id="Path_11019" d="M1086.988 506.2c1.482 0 2.041 1.029 2.041 2.372a3.894 3.894 0 0 1-.244 1.273h-4.255c-.244 1.692.645 2.406 1.779 2.406a2.611 2.611 0 0 0 1.482-.575l.4.68a3.645 3.645 0 0 1-2.127.7 2.45 2.45 0 0 1-2.563-2.738 3.891 3.891 0 0 1 3.487-4.118zm1.081 2.947a2.675 2.675 0 0 0 .07-.663c0-.75-.332-1.465-1.273-1.465a2.553 2.553 0 0 0-2.232 2.128z" class="cls-1" transform="translate(-903.46 -439.758)"/>
    <path id="Path_11020" d="M1129.7 498.529a4.016 4.016 0 0 1 .07-.558l1.674-8.371h1.029l-1.674 8.423a.944.944 0 0 0-.035.262.216.216 0 0 0 .227.244.451.451 0 0 0 .227-.052v.785a1.662 1.662 0 0 1-.646.1.758.758 0 0 1-.872-.833z" class="cls-1" transform="translate(-941.603 -426.052)"/>
    <path id="Path_11021" d="M1160.487 506.2c1.482 0 2.04 1.029 2.04 2.372a3.885 3.885 0 0 1-.244 1.273h-4.255c-.244 1.692.646 2.406 1.779 2.406a2.611 2.611 0 0 0 1.482-.575l.4.68a3.645 3.645 0 0 1-2.127.7 2.451 2.451 0 0 1-2.564-2.738 3.867 3.867 0 0 1 3.489-4.118zm1.081 2.947a2.67 2.67 0 0 0 .07-.663c0-.75-.331-1.465-1.273-1.465a2.554 2.554 0 0 0-2.232 2.128z" class="cls-1" transform="translate(-964.142 -439.758)"/>
    <path id="Path_11022" d="M1202.7 510.355a4 4 0 0 1 3.662-4.255 2.111 2.111 0 0 1 1.692.8l-.611.645a1.366 1.366 0 0 0-1.151-.576c-1.308 0-2.546 1.535-2.546 3.331 0 1.186.506 1.849 1.552 1.849a2.442 2.442 0 0 0 1.448-.575l.471.68a3.346 3.346 0 0 1-2.11.767 2.376 2.376 0 0 1-2.407-2.666z" class="cls-1" transform="translate(-1001.872 -439.675)"/>
    <path id="Path_11023" d="M1243.8 510.355c0-2.476 1.744-4.255 3.54-4.255a2.324 2.324 0 0 1 2.336 2.633c0 2.476-1.744 4.255-3.54 4.255-1.412.018-2.336-.994-2.336-2.633zm4.848-1.535c0-1.186-.506-1.849-1.413-1.849-1.2 0-2.389 1.5-2.389 3.331 0 1.186.506 1.849 1.413 1.849 1.203-.017 2.389-1.5 2.389-3.331z" class="cls-1" transform="translate(-1035.805 -439.675)"/>
    <path id="Path_11024" d="M1292.99 506.274h.855l-.1.977h.052a3.637 3.637 0 0 1 2.163-1.151 1.355 1.355 0 0 1 1.517 1.29 3.8 3.8 0 0 1 2.319-1.29c1.1 0 1.535.628 1.535 1.639a4.393 4.393 0 0 1-.1.907l-.837 4.185h-1.029l.819-4.046a3.759 3.759 0 0 0 .1-.767c0-.663-.3-1.011-.959-1.011a3.31 3.31 0 0 0-1.848 1.186l-.924 4.639h-1.029l.82-4.046a3.744 3.744 0 0 0 .1-.767c0-.663-.3-1.011-.942-1.011a3.207 3.207 0 0 0-1.849 1.186l-.924 4.639h-1.029z" class="cls-1" transform="translate(-1075.352 -439.675)"/>
</svg>
