<svg xmlns="http://www.w3.org/2000/svg" width="58.345" height="59.658" viewBox="0 0 58.345 59.658">
  <defs>
    <style>
      .cls-1 {
        fill: #00afce;
      }
    </style>
  </defs>
  <g id="business-and-finance" transform="translate(0 -0.052)">
    <path id="Path_7610" data-name="Path 7610" class="cls-1" d="M56.579,25.139H49.547V1.858A1.789,1.789,0,0,0,47.781.052H45.828a1.789,1.789,0,0,0-1.766,1.806v.112H26.342a1.779,1.779,0,0,0-1.53.872,1.864,1.864,0,0,0-.079,1.79l2.882,5.894a.094.094,0,0,1,0,.082L24.733,16.5a1.864,1.864,0,0,0,.079,1.79,1.778,1.778,0,0,0,1.53.872h17.72v5.975H37.006a1.789,1.789,0,0,0-1.766,1.806v2a1.789,1.789,0,0,0,1.766,1.806h.121v4.044H26.535a.874.874,0,0,0,0,1.748H37.128v2.113H19.386a.058.058,0,0,1-.057-.058v-2a.058.058,0,0,1,.057-.058h3.73a.874.874,0,0,0,0-1.748h-3.73A1.789,1.789,0,0,0,17.62,36.6v2A1.789,1.789,0,0,0,19.386,40.4h.122v4.044H1.766A1.789,1.789,0,0,0,0,46.253v2a1.789,1.789,0,0,0,1.766,1.806h.122V57.87a1.821,1.821,0,0,0,1.8,1.839h2.92a.874.874,0,0,0,0-1.748H3.686A.09.09,0,0,1,3.6,57.87V55.848H54.748V57.87a.09.09,0,0,1-.089.091H10.028a.874.874,0,0,0,0,1.748H54.659a1.821,1.821,0,0,0,1.8-1.839V30.749h.122a1.789,1.789,0,0,0,1.766-1.806v-2A1.789,1.789,0,0,0,56.579,25.139ZM26.342,17.417a.082.082,0,0,1-.076-.043.086.086,0,0,1,0-.089l2.882-5.894a1.886,1.886,0,0,0,0-1.645L26.262,3.851a.086.086,0,0,1,0-.089.082.082,0,0,1,.076-.043h17.72v13.7H26.342ZM45.771,1.858a.058.058,0,0,1,.057-.058h1.953a.058.058,0,0,1,.057.058V25.14H45.771ZM1.709,48.25v-2a.058.058,0,0,1,.057-.058H19.508v2.113H1.766A.058.058,0,0,1,1.709,48.25ZM54.748,54.1H3.6V50.056H20.363a.864.864,0,0,0,.855-.874V40.4H37.983a.864.864,0,0,0,.855-.874v-8.78H54.748Zm1.888-25.158a.058.058,0,0,1-.057.058H37.006a.058.058,0,0,1-.057-.058v-2a.058.058,0,0,1,.057-.058H56.579a.058.058,0,0,1,.057.058Z" transform="translate(0 0)"/>
    <path id="Path_7611" data-name="Path 7611" class="cls-1" d="M290.432,55.416a1.174,1.174,0,0,0-2.1,0l-1.468,2.935a1.174,1.174,0,0,0,1.05,1.7h2.935a1.174,1.174,0,0,0,1.05-1.7Zm.467,3.491a.054.054,0,0,1-.05.028h-2.935a.058.058,0,0,1-.052-.084l1.468-2.935a.058.058,0,0,1,.1,0L290.9,58.85A.054.054,0,0,1,290.9,58.907Z" transform="translate(-252.235 -50.645)"/>
    <path id="Path_7612" data-name="Path 7612" class="cls-1" d="M133.091,100.465h2.465a.558.558,0,0,0,0-1.116h-2.465a.558.558,0,0,0,0,1.116Z" transform="translate(-116.886 -87.598)"/>
    <path id="Path_7613" data-name="Path 7613" class="cls-1" d="M159.36,173.972l-2.134,1.232a.558.558,0,1,0,.558.966l2.134-1.232a.558.558,0,0,0-.558-.966Z" transform="translate(-138.483 -153.103)"/>
    <path id="Path_7614" data-name="Path 7614" class="cls-1" d="M444.727,173.972a.558.558,0,1,0-.558.966l2.134,1.232a.558.558,0,0,0,.558-.966Z" transform="translate(-390.611 -153.103)"/>
    <path id="Path_7615" data-name="Path 7615" class="cls-1" d="M463.867,99.907a.558.558,0,0,0,.558.558h2.465a.558.558,0,0,0,0-1.116h-2.465A.558.558,0,0,0,463.867,99.907Z" transform="translate(-409.102 -87.598)"/>
    <path id="Path_7616" data-name="Path 7616" class="cls-1" d="M444.448,10.58a.555.555,0,0,0,.278-.075l2.134-1.232a.558.558,0,1,0-.558-.966l-2.134,1.232a.558.558,0,0,0,.279,1.041Z" transform="translate(-390.611 -7.571)"/>
    <path id="Path_7617" data-name="Path 7617" class="cls-1" d="M157.226,9.271,159.36,10.5a.558.558,0,0,0,.558-.966L157.784,8.3a.558.558,0,0,0-.558.966Z" transform="translate(-138.483 -7.57)"/>
  </g>
</svg>
