<svg xmlns="http://www.w3.org/2000/svg" width="63.907" height="59.892" viewBox="0 0 63.907 59.892">
  <defs>
    <style>
      .cls-1 {
        fill: #00afce;
      }
    </style>
  </defs>
  <path id="digital" class="cls-1" d="M56.159,35.7a2,2,0,0,0,0-2.823h0a2,2,0,1,0,0,2.823Zm3.482-6.306A1.065,1.065,0,1,1,58.135,30.9a4.789,4.789,0,0,0-6.776,0,1.065,1.065,0,1,1-1.506-1.506A6.917,6.917,0,0,1,59.641,29.394Zm3.2-2.135a1.061,1.061,0,0,1-.753-.312,10.375,10.375,0,0,0-14.681,0A1.065,1.065,0,0,1,45.9,25.441a12.5,12.5,0,0,1,17.693,0,1.066,1.066,0,0,1-.753,1.818Zm-4.511,12.3a1.065,1.065,0,0,0-.891,1.214A27.85,27.85,0,0,1,31.011,72.823V46.094H45.046a32.841,32.841,0,0,1-8.864,21.05,1.065,1.065,0,0,0,1.575,1.434,34.926,34.926,0,0,0,9.421-22.483h5.129a1.065,1.065,0,1,0,0-2.129H47.176C46.755,30.176,38.212,21.3,33.517,17.443a27.762,27.762,0,0,1,10.019,3.31A1.065,1.065,0,1,0,44.578,18.9,29.948,29.948,0,1,0,59.544,40.449a1.065,1.065,0,0,0-1.214-.891ZM28.881,71.873a38.263,38.263,0,0,1-6.527-6.3,31.917,31.917,0,0,1-7.508-19.478H28.881Zm8.661-47.385a31.923,31.923,0,0,1,7.5,19.476H31.011V18.18A38.261,38.261,0,0,1,37.542,24.489Zm-8.661-7.254V43.964H14.847A32.729,32.729,0,0,1,23.2,23.49a1.065,1.065,0,1,0-1.6-1.4,34.819,34.819,0,0,0-8.877,21.875H2.152A27.85,27.85,0,0,1,28.881,17.235ZM2.152,46.094H12.716c.423,13.794,8.972,22.67,13.668,26.524A27.861,27.861,0,0,1,2.152,46.094Z" transform="translate(0 -15.083)"/>
</svg>
