
<svg xmlns="http://www.w3.org/2000/svg" xmlns:xlink="http://www.w3.org/1999/xlink" width="18.985" height="18.985" viewBox="0 0 18.985 18.985">
  <defs>
    <style>
      .edit-1 {
        fill: #fff;
      }

      .edit-2 {
        filter: url(#Path_7664);
      }
    </style>
    <filter id="Path_7664" x="0" y="0" width="18.985" height="18.985" filterUnits="userSpaceOnUse">
      <feOffset dx="1" dy="1" input="SourceAlpha"/>
      <feGaussianBlur stdDeviation="0.5" result="blur"/>
      <feFlood flood-color="#ffbe21"/>
      <feComposite operator="in" in2="blur"/>
      <feComposite in="SourceGraphic"/>
    </filter>
  </defs>
  <g class="edit-2" transform="matrix(1, 0, 0, 1, 0, 0)">
    <path id="Path_7664-2" data-name="Path 7664" class="edit-1" d="M-104.426,120.815a2.781,2.781,0,0,0-1.967-.815,2.761,2.761,0,0,0-1.967.815l-9.571,9.57a.736.736,0,0,0-.175.284l-1.453,4.359a.727.727,0,0,0,.46.919.73.73,0,0,0,.229.037.739.739,0,0,0,.23-.037l4.359-1.453a.727.727,0,0,0,.284-.176l9.57-9.57A2.781,2.781,0,0,0-104.426,120.815Z" transform="translate(120.1 -119.5)"/>
  </g>
</svg>
