<svg xmlns="http://www.w3.org/2000/svg" width="44.476" height="44.476" viewBox="0 0 44.476 44.476"><defs><style>.a{fill:none;stroke:#ed204c;stroke-linecap:round;stroke-linejoin:round;stroke-width:4px;}</style></defs><g transform="translate(2 2)"><path class="a" d="M24.539,19.019A5.519,5.519,0,1,1,19.019,13.5,5.519,5.519,0,0,1,24.539,19.019Z" transform="translate(1.218 1.218)"/><path class="a" d="M35.352,27.257a3.036,3.036,0,0,0,.607,3.348l.11.11a3.682,3.682,0,1,1-5.207,5.207l-.11-.11a3.06,3.06,0,0,0-5.188,2.171V38.3a3.68,3.68,0,1,1-7.359,0v-.166a3.036,3.036,0,0,0-1.987-2.778,3.036,3.036,0,0,0-3.348.607l-.11.11a3.682,3.682,0,1,1-5.207-5.207l.11-.11a3.06,3.06,0,0,0-2.171-5.188H5.18a3.68,3.68,0,1,1,0-7.359h.166a3.036,3.036,0,0,0,2.778-1.987,3.036,3.036,0,0,0-.607-3.348l-.11-.11a3.682,3.682,0,1,1,5.207-5.207l.11.11a3.036,3.036,0,0,0,3.348.607h.147a3.036,3.036,0,0,0,1.84-2.778V5.18a3.68,3.68,0,1,1,7.359,0v.166a3.06,3.06,0,0,0,5.188,2.171l.11-.11a3.682,3.682,0,1,1,5.207,5.207l-.11.11a3.036,3.036,0,0,0-.607,3.348v.147a3.036,3.036,0,0,0,2.778,1.84H38.3a3.68,3.68,0,1,1,0,7.359h-.166a3.036,3.036,0,0,0-2.778,1.84Z" transform="translate(-1.5 -1.5)"/></g></svg>