<svg xmlns="http://www.w3.org/2000/svg" width="60.479" height="60.479" viewBox="0 0 60.479 60.479">
  <defs>
    <style>
      .cls-1 {
        fill: #00afce;
      }
    </style>
  </defs>
  <g id="information" transform="translate(-1 -1)">
    <path id="Path_4972" data-name="Path 4972" class="cls-1" d="M56.6,13.681a2.93,2.93,0,0,0-2.926,2.926v.38a46.818,46.818,0,0,1-9.755,3.852V5.877A4.883,4.883,0,0,0,39.043,1H16.607V8.8H5.877A4.883,4.883,0,0,0,1,13.681V56.6a4.883,4.883,0,0,0,4.877,4.877h32.19v-7.8h5.853V41.639a46.764,46.764,0,0,1,9.755,3.852v.38A2.93,2.93,0,0,0,56.6,48.8a4.883,4.883,0,0,0,4.877-4.877V18.558A4.883,4.883,0,0,0,56.6,13.681ZM18.558,2.951H39.043a2.926,2.926,0,1,1,0,5.853H18.558Zm-12.681,7.8H39.043a4.827,4.827,0,0,0,2.926-1V21.316c-1.286.288-2.588.517-3.9.7V16.607H5.877a2.926,2.926,0,1,1,0-5.853ZM38.068,38.5V23.982c.654-.086,1.3-.18,1.951-.292v15.1C39.372,38.677,38.721,38.583,38.068,38.5ZM36.117,59.528H5.877A2.93,2.93,0,0,1,2.951,56.6V17.581a4.858,4.858,0,0,0,2.926.977H36.117Zm5.853-7.8h-3.9V40.466c1.314.179,2.616.409,3.9.7Zm0-12.566V23.321a48.564,48.564,0,0,0,11.706-4.139V43.3A48.6,48.6,0,0,0,41.97,39.158Zm17.558,4.762A2.93,2.93,0,0,1,56.6,46.847a.977.977,0,0,1-.975-.975V16.607a.977.977,0,0,1,.975-.975,2.93,2.93,0,0,1,2.926,2.926Z" transform="translate(0 0)"/>
    <path id="Path_4973" data-name="Path 4973" class="cls-1" d="M5,34.657H34.264V21H5ZM6.951,22.951H32.313v9.755H6.951Z" transform="translate(-0.098 -0.491)"/>
    <path id="Path_4974" data-name="Path 4974" class="cls-1" d="M5,37H6.951v1.951H5Z" transform="translate(-0.098 -0.883)"/>
    <path id="Path_4975" data-name="Path 4975" class="cls-1" d="M9,37H22.657v1.951H9Z" transform="translate(-0.196 -0.883)"/>
    <path id="Path_4976" data-name="Path 4976" class="cls-1" d="M5,41H22.558v1.951H5Z" transform="translate(-0.098 -0.981)"/>
    <path id="Path_4977" data-name="Path 4977" class="cls-1" d="M5,45H22.558v1.951H5Z" transform="translate(-0.098 -1.079)"/>
    <path id="Path_4978" data-name="Path 4978" class="cls-1" d="M31.926,53a2.926,2.926,0,1,0,2.926,2.926A2.93,2.93,0,0,0,31.926,53Zm0,3.9a.975.975,0,1,1,.975-.975A.977.977,0,0,1,31.926,56.9Z" transform="translate(-0.687 -1.276)"/>
    <path id="Path_4979" data-name="Path 4979" class="cls-1" d="M23.926,53a2.926,2.926,0,1,0,2.926,2.926A2.93,2.93,0,0,0,23.926,53Zm0,3.9a.975.975,0,1,1,.975-.975A.977.977,0,0,1,23.926,56.9Z" transform="translate(-0.491 -1.276)"/>
  </g>
</svg>
