<svg xmlns="http://www.w3.org/2000/svg" xmlns:xlink="http://www.w3.org/1999/xlink" width="187.857" height="58.533" viewBox="0 0 187.857 58.533"><defs><style>.a{fill:#ed204c;}.b{clip-path:url(#a);}.c{clip-path:url(#b);}.d{clip-path:url(#c);}.e{fill:#fff;}</style><clipPath id="a"><path class="a" d="M0,82.135A10.546,10.546,0,0,0,10.353,92.866a10.738,10.738,0,0,0,0-21.462A10.549,10.549,0,0,0,0,82.135" transform="translate(0 -71.404)"/></clipPath><clipPath id="b"><path class="a" d="M70.84,42.731c0,.018,0,.037,0,.054,0-.011,0-.032,0-.054a.506.506,0,0,0,0-.061.351.351,0,0,0-.007.061M36.452,19.642c.957,7.665,6.692,6.334,11.39,9.537,5.974,4.061,1.73,10.382,3.066,17.252C53.086,57.648,71.514,55,70.844,42.785c0,.016,0,.009,0-.054A8.316,8.316,0,0,0,65.5,34.964c-.069-.038-5.206-2.521-5.869-2.924-4.321-2.63-4.014-8.738-4.1-14.006a14.235,14.235,0,0,0-.393-4.287C54.1,10.214,52.364,7.47,46.527,7.381h-.135c-5.461,0-10.841,5.056-9.94,12.262" transform="translate(-36.352 -7.38)"/></clipPath><clipPath id="c"><path class="a" d="M144.46,42.731c0,.018,0,.037,0,.054,0-.011,0-.032,0-.054a.5.5,0,0,0,0-.061.354.354,0,0,0-.007.061M110.071,19.642c.957,7.665,6.692,6.334,11.39,9.537,5.974,4.061,1.73,10.382,3.066,17.252,2.179,11.218,20.606,8.571,19.936-3.645,0,.016,0,.009,0-.054a8.316,8.316,0,0,0-5.345-7.767c-.069-.038-5.206-2.521-5.869-2.924-4.321-2.63-4.013-8.738-4.1-14.006a14.221,14.221,0,0,0-.393-4.287c-1.037-3.532-2.771-6.276-8.608-6.365h-.135c-5.461,0-10.841,5.056-9.94,12.262" transform="translate(-109.971 -7.38)"/></clipPath></defs><g transform="translate(-1359 -86.85)"><g transform="translate(1359 114.41)"><g class="b"><rect class="a" width="25.14" height="25.7" transform="translate(-4.869 1.168) rotate(-13.491)"/></g></g><g transform="translate(1373.031 89.698)"><g class="c"><rect class="a" width="46.698" height="57.271" transform="translate(-12.205 2.735) rotate(-13.491)"/></g></g><g transform="translate(1401.446 89.698)"><g class="d"><rect class="a" width="46.698" height="57.272" transform="matrix(0.972, -0.233, 0.233, 0.972, -12.205, 2.735)"/></g></g><path class="a" d="M224.15,137.431h-1.718v4.792a3.144,3.144,0,0,1-.5.053,3.248,3.248,0,0,1-.5-.053v-4.792H219.7a1.941,1.941,0,0,1,0-.9h4.446a1.96,1.96,0,0,1,.053.452,2.019,2.019,0,0,1-.053.452" transform="translate(1224.129 3.018)"/><path class="a" d="M241.047,136.466v5.678a2.133,2.133,0,0,1-.478.053,2.836,2.836,0,0,1-.531-.053v-2.427h-2.684v2.427a2.438,2.438,0,0,1-.5.053,2.482,2.482,0,0,1-.5-.053v-5.678a1.756,1.756,0,0,1,.478-.053,2.05,2.05,0,0,1,.523.053v2.33h2.684v-2.33a2.506,2.506,0,0,1,.5-.053,2.435,2.435,0,0,1,.5.053" transform="translate(1213.873 3.088)"/><path class="a" d="M258.673,141.745a1.663,1.663,0,0,1-.062.469h-3.72v-5.687h3.64a2,2,0,0,1,.053.46,1.926,1.926,0,0,1-.053.452h-2.64v1.408h2.347a1.961,1.961,0,0,1,.053.452,2.016,2.016,0,0,1-.053.452h-2.347v1.559h2.719a1.464,1.464,0,0,1,.062.434" transform="translate(1202.49 3.018)"/><path class="a" d="M281.231,142.068a1.8,1.8,0,0,1-.629.1,2.138,2.138,0,0,1-.416-.036l-.5-1.364h-2.232l-.487,1.364a2.652,2.652,0,0,1-.452.036,1.364,1.364,0,0,1-.558-.1l2.117-5.624a2.1,2.1,0,0,1,.523-.053,1.913,1.913,0,0,1,.5.053Zm-1.86-2.152-.655-1.772-.16-.523-.159.523-.638,1.772Z" transform="translate(1189.558 3.102)"/><path class="a" d="M298.71,142.006a3.085,3.085,0,0,1-.8.089,1.871,1.871,0,0,1-.319-.018l-1.266-2.108h-.133c-.266,0-.55,0-.833-.018v2.108a2.374,2.374,0,0,1-.5.053,2.5,2.5,0,0,1-.5-.053v-5.6a9.05,9.05,0,0,1,1.816-.186c1.577,0,2.259.7,2.259,1.763a1.778,1.778,0,0,1-1.107,1.709Zm-2.489-2.9c.85,0,1.187-.443,1.187-1.019,0-.593-.381-.948-1.2-.948-.293,0-.576.018-.851.044v1.9c.292.018.585.018.859.018" transform="translate(1178.26 3.173)"/><path class="a" d="M313.421,137.431H311.7v4.792a3.144,3.144,0,0,1-.5.053,3.248,3.248,0,0,1-.5-.053v-4.792h-1.727a1.941,1.941,0,0,1,0-.9h4.446a1.962,1.962,0,0,1,.053.452,2.02,2.02,0,0,1-.053.452" transform="translate(1169.314 3.018)"/><path class="a" d="M331.978,139.094a2.907,2.907,0,1,1,2.905,2.994,2.861,2.861,0,0,1-2.905-2.994m4.73,0a1.838,1.838,0,1,0-1.825,2.055,1.839,1.839,0,0,0,1.825-2.055" transform="translate(1155.156 3.286)"/><path class="a" d="M353.514,137.449V139.1h2.312a2.344,2.344,0,0,1,0,.9h-2.312v2.214a2.4,2.4,0,0,1-.5.053,2.443,2.443,0,0,1-.5-.053v-5.687h3.6a2.431,2.431,0,0,1,0,.921Z" transform="translate(1142.547 3.018)"/><path class="a" d="M376.858,137.431h-1.718v4.792a3.143,3.143,0,0,1-.5.053,3.248,3.248,0,0,1-.5-.053v-4.792h-1.727a1.941,1.941,0,0,1,0-.9h4.446a1.962,1.962,0,0,1,.053.452,2.02,2.02,0,0,1-.053.452" transform="translate(1130.362 3.018)"/><path class="a" d="M392.843,141.745a1.662,1.662,0,0,1-.062.469h-3.72v-5.687h3.64a2,2,0,0,1,.053.46,1.924,1.924,0,0,1-.053.452h-2.64v1.408h2.347a1.961,1.961,0,0,1,.053.452,2.017,2.017,0,0,1-.053.452h-2.347v1.559h2.719a1.463,1.463,0,0,1,.062.434" transform="translate(1120.106 3.018)"/><path class="a" d="M407.875,141.669a2.158,2.158,0,0,1-.053.46h-3.481v-5.687a2.357,2.357,0,0,1,.5-.053,2.438,2.438,0,0,1,.5.053v4.783h2.48a1.883,1.883,0,0,1,.053.443" transform="translate(1110.724 3.102)"/><path class="a" d="M422.187,141.745a1.661,1.661,0,0,1-.062.469h-3.72v-5.687h3.64a2,2,0,0,1,.053.46,1.924,1.924,0,0,1-.053.452h-2.64v1.408h2.347a1.961,1.961,0,0,1,.053.452,2.017,2.017,0,0,1-.053.452h-2.347v1.559h2.719a1.462,1.462,0,0,1,.062.434" transform="translate(1102.088 3.018)"/><path class="a" d="M432.492,139.1a2.877,2.877,0,0,1,2.923-3.012,2.782,2.782,0,0,1,1.745.531,1.17,1.17,0,0,1-.549.789,1.962,1.962,0,0,0-1.178-.372,2.055,2.055,0,1,0,1.267,3.684,1.018,1.018,0,0,1,.531.789,2.968,2.968,0,0,1-4.739-2.409" transform="translate(1093.438 3.286)"/><path class="a" d="M448.483,139.094a2.907,2.907,0,1,1,2.905,2.994,2.861,2.861,0,0,1-2.905-2.994m4.73,0a1.838,1.838,0,1,0-1.825,2.055,1.839,1.839,0,0,0,1.825-2.055" transform="translate(1083.619 3.286)"/><path class="a" d="M474.651,136.484v5.66a2.307,2.307,0,0,1-.469.053,2.467,2.467,0,0,1-.487-.053v-3.109l.044-.824-.151.425L472.3,141.63a2.77,2.77,0,0,1-.443.036,2.818,2.818,0,0,1-.434-.036l-1.337-3.012-.16-.4.035.815v3.109a2.094,2.094,0,0,1-.939,0v-5.66a2.1,2.1,0,0,1,.54-.071,2.316,2.316,0,0,1,.487.044l1.754,3.835.106.283.089-.283,1.647-3.835a2.562,2.562,0,0,1,.478-.036,2.224,2.224,0,0,1,.531.062" transform="translate(1071.01 3.088)"/><path class="e" d="M246.77,16.418V26.881a16.476,16.476,0,0,1-5.249,0V17.573c0-2.065-.98-3.149-2.939-3.149a4.493,4.493,0,0,0-2.8.945c.035.35.07.7.07,1.049V26.881a16.567,16.567,0,0,1-2.624.21,15.816,15.816,0,0,1-2.59-.21V17.573c0-2.065-1.015-3.149-2.974-3.149a5.159,5.159,0,0,0-2.694.7V26.881a16.567,16.567,0,0,1-2.624.21,16.133,16.133,0,0,1-2.589-.21V12.464a13.7,13.7,0,0,1,8.4-2.764,8.7,8.7,0,0,1,5.424,1.575A10.42,10.42,0,0,1,239.072,9.7c5.214,0,7.7,2.835,7.7,6.718" transform="translate(1224.063 80.894)"/><path class="e" d="M296.727,18.588c0-5.354,3.849-8.888,9.133-8.888s9.063,3.464,9.063,8.888c0,5.318-3.849,8.853-9.133,8.853s-9.063-3.36-9.063-8.853m12.947,0c0-2.73-1.4-4.514-3.849-4.514s-3.884,1.785-3.884,4.514c0,2.694,1.435,4.514,3.884,4.514s3.849-1.819,3.849-4.514" transform="translate(1176.802 80.894)"/><path class="e" d="M367.443,16.8V26.88a16.477,16.477,0,0,1-5.249,0V17.642c0-2.379-1.295-3.219-3.149-3.219a5.626,5.626,0,0,0-2.8.7V26.88a16.573,16.573,0,0,1-2.624.21,16.133,16.133,0,0,1-2.589-.21V12.464a13.025,13.025,0,0,1,8.4-2.765c5.529,0,8.013,3.01,8.013,7.1" transform="translate(1143.457 80.894)"/><path class="e" d="M413.709,19.6a8.293,8.293,0,0,1-5.389,1.855c-3.814,0-6.684-1.61-6.684-5.668V8.853H398.8a13.957,13.957,0,0,1-.175-2.169,14.151,14.151,0,0,1,.175-2.1h2.834V.211A17.344,17.344,0,0,1,404.3,0a14.974,14.974,0,0,1,2.519.21V4.585h5.809a10.107,10.107,0,0,1,.245,2.064,11.517,11.517,0,0,1-.245,2.2h-5.809v5.634c0,1.889.875,2.52,2.415,2.52a3.516,3.516,0,0,0,2.309-.98,5.323,5.323,0,0,1,2.17,3.569" transform="translate(1114.232 86.849)"/><path class="e" d="M458.432,11.39C457,21.992,452.938,29.8,445.45,35.149a5.349,5.349,0,0,1-3.114-3.6,25,25,0,0,0,4.549-4.409,43.576,43.576,0,0,1-6.228-15.781,19.434,19.434,0,0,1,3.814-.384,17.948,17.948,0,0,1,1.96.1,50.3,50.3,0,0,0,3.219,11.3,6.647,6.647,0,0,1,.35.945,5.088,5.088,0,0,1,.28-.945,43.8,43.8,0,0,0,2.73-11.3,20.424,20.424,0,0,1,2.065-.1,13.761,13.761,0,0,1,3.359.42" transform="translate(1088.425 80.114)"/><path class="e" d="M246.088,86.406V96.673a16.22,16.22,0,0,1-5.15,0V87.539c0-2.026-.961-3.09-2.884-3.09a4.41,4.41,0,0,0-2.747.927c.034.344.069.687.069,1.03V96.673a16.359,16.359,0,0,1-2.575.206,15.616,15.616,0,0,1-2.541-.206V87.539c0-2.026-1-3.09-2.918-3.09a5.059,5.059,0,0,0-2.644.686V96.673a16.359,16.359,0,0,1-2.575.206,15.922,15.922,0,0,1-2.54-.206V82.527a13.444,13.444,0,0,1,8.24-2.713,8.534,8.534,0,0,1,5.321,1.545,10.223,10.223,0,0,1,5.391-1.545c5.116,0,7.553,2.781,7.553,6.592" transform="translate(1224.171 37.842)"/><path class="e" d="M295.106,88.534c0-5.253,3.777-8.721,8.961-8.721s8.893,3.4,8.893,8.721c0,5.219-3.777,8.687-8.961,8.687s-8.892-3.3-8.892-8.687m12.7,0c0-2.678-1.373-4.429-3.777-4.429s-3.811,1.751-3.811,4.429c0,2.644,1.408,4.429,3.811,4.429s3.777-1.786,3.777-4.429" transform="translate(1177.797 37.842)"/><path class="e" d="M365.338,78.968c0,5.528-3.743,8.859-9.649,8.859a15.971,15.971,0,0,1-7.21-1.579V64.72a12.892,12.892,0,0,1,2.541-.206,13.027,13.027,0,0,1,2.575.206v6.215a8.335,8.335,0,0,1,2.781-.412c5.116,0,8.962,2.918,8.962,8.446m-5.15.206a3.92,3.92,0,0,0-4.154-4.257,7.133,7.133,0,0,0-2.438.412v7.794a8.13,8.13,0,0,0,2.438.378c2.643,0,4.154-1.683,4.154-4.326" transform="translate(1145.024 47.236)"/><path class="e" d="M398.206,62.943a3.09,3.09,0,0,1,6.18,0,3.09,3.09,0,1,1-6.18,0m.515,21.494V68.128a15.482,15.482,0,0,1,2.54-.206,16.886,16.886,0,0,1,2.575.206V84.437a15.682,15.682,0,0,1-2.575.206,16.208,16.208,0,0,1-2.54-.206" transform="translate(1114.491 50.077)"/><path class="e" d="M422.313,87.386V64.9a14.764,14.764,0,0,1,2.507-.206,17.425,17.425,0,0,1,2.644.206V87.386a15.262,15.262,0,0,1-2.541.206,17.073,17.073,0,0,1-2.609-.206" transform="translate(1099.688 47.128)"/><path class="e" d="M459.108,89.968h-10.85c.309,2.3,1.579,3.331,4.017,3.331a8.467,8.467,0,0,0,4.807-1.648,5.206,5.206,0,0,1,1.854,3.468,11.364,11.364,0,0,1-7.21,2.3c-5.047,0-8.687-3.124-8.687-8.584a8.344,8.344,0,0,1,8.515-8.755c4.6,0,7.725,2.918,7.725,7.485a14.151,14.151,0,0,1-.172,2.4m-4.67-2.884a2.817,2.817,0,0,0-2.85-3.125,3.225,3.225,0,0,0-3.331,3.125Z" transform="translate(1086.961 37.678)"/></g></svg>