<svg id="new" xmlns="http://www.w3.org/2000/svg" width="60.082" height="60.081" viewBox="0 0 60.082 60.081">
  <defs>
    <style>
      .cls-1 {
        fill: #00afce;
      }
    </style>
  </defs>
  <g id="Group_12506" data-name="Group 12506">
    <g id="Group_12505" data-name="Group 12505">
      <path id="Path_7595" data-name="Path 7595" class="cls-1" d="M56.67,25.6c-.927-.682-2.079-1.533-2.231-2.1-.165-.617.423-1.975.9-3.064.812-1.87,1.654-3.806.721-5.42-.943-1.635-3.062-1.873-5.107-2.1-1.168-.131-2.62-.293-3.054-.729s-.6-1.886-.729-3.054c-.23-2.045-.468-4.161-2.1-5.107-1.421-.825-3.527-.1-5.42.721a8.724,8.724,0,0,1-3.067.9c-.564-.149-1.413-1.3-2.1-2.231C33.3,1.813,31.968,0,30.041,0S26.778,1.813,25.6,3.409c-.684.927-1.533,2.082-2.333,2.26a9.035,9.035,0,0,1-2.832-.925c-1.9-.825-4.007-1.539-5.418-.721-1.638.946-1.876,3.062-2.105,5.107-.128,1.168-.293,2.617-.726,3.054s-1.889.6-3.054.729c-2.048.23-4.167.47-5.11,2.1-.933,1.612-.091,3.547.721,5.42.475,1.089,1.066,2.448.9,3.064-.151.564-1.306,1.416-2.231,2.1C1.813,26.775,0,28.113,0,30.041s1.813,3.265,3.412,4.443c.927.682,2.079,1.533,2.231,2.1.165.617-.423,1.975-.9,3.064-.812,1.87-1.654,3.806-.721,5.42.943,1.635,3.062,1.873,5.107,2.1,1.168.131,2.62.293,3.054.729s.6,1.886.729,3.054c.23,2.045.468,4.161,2.1,5.107,1.416.823,3.521.1,5.42-.721a8.1,8.1,0,0,1,3.067-.9c.564.149,1.413,1.3,2.1,2.231,1.178,1.6,2.513,3.412,4.441,3.412s3.263-1.813,4.438-3.409c.684-.927,1.533-2.082,2.333-2.26a8.994,8.994,0,0,1,2.832.925c1.9.828,4.007,1.541,5.418.724,1.638-.946,1.876-3.062,2.105-5.11.128-1.168.293-2.617.726-3.054s1.889-.6,3.054-.729c2.048-.23,4.167-.47,5.11-2.1.935-1.612.094-3.547-.721-5.42-.475-1.089-1.063-2.445-.9-3.064.151-.564,1.306-1.416,2.231-2.1,1.6-1.178,3.414-2.516,3.414-4.443S58.268,26.775,56.67,25.6Zm-1.546,6.779C53.736,33.4,52.3,34.453,51.916,35.9c-.4,1.5.327,3.169,1.029,4.783.449,1.034,1.128,2.6.857,3.069-.285.494-2,.687-3.14.815-1.734.2-3.529.4-4.611,1.479s-1.283,2.876-1.476,4.611c-.128,1.136-.321,2.855-.818,3.14a.643.643,0,0,1-.293.055,8.981,8.981,0,0,1-2.777-.912c-1.62-.7-3.391-1.4-4.78-1.027-1.45.387-2.505,1.821-3.529,3.208-.69.935-1.732,2.348-2.338,2.348S28.39,56.056,27.7,55.121c-1.021-1.385-2.077-2.819-3.527-3.205a3.541,3.541,0,0,0-.912-.115,10.363,10.363,0,0,0-3.871,1.144,8.939,8.939,0,0,1-2.777.912.642.642,0,0,1-.293-.055c-.5-.287-.687-2-.815-3.14-.2-1.734-.4-3.529-1.479-4.611s-2.876-1.283-4.611-1.479c-1.134-.128-2.853-.321-3.137-.815-.274-.47.408-2.035.857-3.069.7-1.614,1.429-3.284,1.029-4.783-.389-1.447-1.823-2.5-3.208-3.524-.935-.692-2.348-1.734-2.348-2.341S4.026,28.392,4.961,27.7c1.387-1.021,2.821-2.077,3.208-3.524.4-1.5-.327-3.169-1.029-4.783-.447-1.034-1.128-2.6-.857-3.069.287-.494,2-.687,3.14-.812,1.734-.2,3.529-.4,4.611-1.479s1.283-2.876,1.479-4.611c.125-1.136.319-2.853.815-3.14a.643.643,0,0,1,.293-.055,8.893,8.893,0,0,1,2.774.914c1.62.7,3.388,1.405,4.78,1.027,1.45-.387,2.505-1.821,3.529-3.208.69-.935,1.732-2.348,2.338-2.348s1.651,1.413,2.341,2.346c1.021,1.385,2.077,2.819,3.527,3.205,1.379.368,3.161-.321,4.78-1.027a8.939,8.939,0,0,1,2.777-.912.642.642,0,0,1,.293.055c.5.287.687,2,.815,3.14.2,1.734.4,3.529,1.479,4.611s2.876,1.283,4.611,1.479c1.134.128,2.853.321,3.137.815.274.47-.408,2.035-.857,3.069-.7,1.614-1.429,3.284-1.029,4.783.389,1.447,1.823,2.5,3.208,3.524.935.692,2.348,1.734,2.348,2.341S56.056,31.689,55.123,32.376Z"/>
    </g>
  </g>
  <g id="Group_12508" data-name="Group 12508" transform="translate(13.061 23.51)">
    <g id="Group_12507" data-name="Group 12507">
      <path id="Path_7596" data-name="Path 7596" class="cls-1" d="M115.809,192A1.307,1.307,0,0,0,114.5,193.3v6.531l-5.486-7.314a1.307,1.307,0,0,0-2.351.784v10.449a1.306,1.306,0,1,0,2.612,0v-6.531l5.486,7.314a1.309,1.309,0,0,0,1.045.522,1.255,1.255,0,0,0,.413-.068,1.306,1.306,0,0,0,.893-1.238V193.3A1.307,1.307,0,0,0,115.809,192Z" transform="translate(-106.666 -191.998)"/>
    </g>
  </g>
  <g id="Group_12510" data-name="Group 12510" transform="translate(26.122 23.51)">
    <g id="Group_12509" data-name="Group 12509">
      <path id="Path_7597" data-name="Path 7597" class="cls-1" d="M219.864,202.449h-3.918v-7.837h3.918a1.306,1.306,0,1,0,0-2.612h-5.225a1.307,1.307,0,0,0-1.306,1.306v10.449a1.307,1.307,0,0,0,1.306,1.306h5.225a1.306,1.306,0,1,0,0-2.612Z" transform="translate(-213.333 -192)"/>
    </g>
  </g>
  <g id="Group_12512" data-name="Group 12512" transform="translate(26.122 28.735)">
    <g id="Group_12511" data-name="Group 12511">
      <path id="Path_7598" data-name="Path 7598" class="cls-1" d="M219.864,234.667h-5.225a1.306,1.306,0,1,0,0,2.612h5.225a1.306,1.306,0,1,0,0-2.612Z" transform="translate(-213.333 -234.667)"/>
    </g>
  </g>
  <g id="Group_12514" data-name="Group 12514" transform="translate(36.572 23.509)">
    <g id="Group_12513" data-name="Group 12513">
      <path id="Path_7599" data-name="Path 7599" class="cls-1" d="M310.742,192.031a1.3,1.3,0,0,0-1.583.951l-1.523,6.1-1.194-3.581a1.361,1.361,0,0,0-2.479,0l-1.194,3.581-1.523-6.1a1.306,1.306,0,0,0-2.534.632l2.612,10.449a1.307,1.307,0,0,0,1.217.987,1.244,1.244,0,0,0,1.29-.891l1.371-4.12,1.371,4.12a1.309,1.309,0,0,0,1.241.893.277.277,0,0,0,.047,0,1.3,1.3,0,0,0,1.217-.987l2.612-10.449A1.3,1.3,0,0,0,310.742,192.031Z" transform="translate(-298.675 -191.991)"/>
    </g>
  </g>
</svg>
