<svg xmlns="http://www.w3.org/2000/svg" width="54.851" height="54.851" viewBox="0 0 54.851 54.851">
    <path data-name="Icon ionic-ios-paper" d="M13.4 7.594v42.457a1.851 1.851 0 0 1-1.85 1.849 1.851 1.851 0 0 1-1.85-1.849V11.814H7.594a4.215 4.215 0 0 0-4.219 4.219v37.974a4.215 4.215 0 0 0 4.219 4.219h46.558a4.077 4.077 0 0 0 4.074-4.074V7.594a4.215 4.215 0 0 0-4.219-4.219l-36.655.264A3.779 3.779 0 0 0 13.4 7.594zm8.7 4.219h11.074a1.851 1.851 0 0 1 1.846 1.847 1.851 1.851 0 0 1-1.846 1.846H22.1a1.851 1.851 0 0 1-1.846-1.846 1.851 1.851 0 0 1 1.846-1.846zm0 21.1h19.513a1.851 1.851 0 0 1 1.846 1.846 1.851 1.851 0 0 1-1.846 1.841H22.1a1.851 1.851 0 0 1-1.846-1.846A1.851 1.851 0 0 1 22.1 32.91zM47.941 47.15H22.1a1.851 1.851 0 0 1-1.848-1.85 1.851 1.851 0 0 1 1.848-1.842h25.841a1.851 1.851 0 0 1 1.846 1.842 1.851 1.851 0 0 1-1.846 1.85zm0-21.1H22.1a1.851 1.851 0 0 1-1.846-1.846 1.851 1.851 0 0 1 1.846-1.842h25.841a1.851 1.851 0 0 1 1.846 1.846 1.851 1.851 0 0 1-1.846 1.846z" transform="translate(-3.375 -3.375)" style="fill:#1fa9e5"/>
</svg>
