<svg xmlns="http://www.w3.org/2000/svg" width="60" height="60" viewBox="0 0 60 60">
  <defs>
    <style>
      .cls-1 {
        fill: #00afce;
      }
    </style>
  </defs>
  <g id="Smartphone" transform="translate(-2 -2)">
    <path id="Path_4967" data-name="Path 4967" class="cls-1" d="M33.458,2H5.044A3.031,3.031,0,0,0,2,5V59a3.031,3.031,0,0,0,3.044,3H33.458A3.032,3.032,0,0,0,36.5,59V5a3.031,3.031,0,0,0-3.044-3ZM29.115,4l-.507,2H9.9L9.388,4Zm5.358,55a1.007,1.007,0,0,1-1.015,1H5.044A1.007,1.007,0,0,1,4.03,59V5A1.007,1.007,0,0,1,5.044,4H7.3l.822,3.24A1.012,1.012,0,0,0,9.1,8H29.4a1.012,1.012,0,0,0,.984-.76L31.206,4h2.253a1.007,1.007,0,0,1,1.015,1Z" transform="translate(0 0)"/>
    <path id="Path_4968" data-name="Path 4968" class="cls-1" d="M8.03,51H6v6.089A1.015,1.015,0,0,0,7.015,58.1H13.1v-2.03H8.03Z" transform="translate(0.059 -0.163)"/>
    <rect id="Rectangle_2632" data-name="Rectangle 2632" class="cls-1" width="1" height="2" transform="translate(6.479 46.794)"/>
    <path id="Path_4969" data-name="Path 4969" class="cls-1" d="M19.059,18.044a2.03,2.03,0,0,1,2.03,2.03h2.03a4.059,4.059,0,0,0-3.044-3.915V15h-2.03v1.159a4.051,4.051,0,0,0,1.015,7.974,2.03,2.03,0,1,1-2.03,2.03H15a4.059,4.059,0,0,0,3.044,3.915v1.159h2.03V30.078A4.051,4.051,0,0,0,19.059,22.1a2.03,2.03,0,1,1,0-4.059Z" transform="translate(-0.03 -0.07)"/>
    <path id="Path_4970" data-name="Path 4970" class="cls-1" d="M61.34,23.974a1.007,1.007,0,0,0,1.015-1V9A1.007,1.007,0,0,0,61.34,8H39.015A1.007,1.007,0,0,0,38,9V22.975a1.007,1.007,0,0,0,1.015,1h5.074v9.085a5.03,5.03,0,0,0-4.059,4.892v7.987a.958.958,0,0,0,.061.339L43.683,56a1.014,1.014,0,0,0-.609.918v3.993a1.007,1.007,0,0,0,1.015,1H58.3a1.007,1.007,0,0,0,1.015-1V56.92A1.014,1.014,0,0,0,58.7,56l3.592-9.724a.958.958,0,0,0,.061-.339V36.952a2.967,2.967,0,0,0-1.332-2.484,3.072,3.072,0,0,0-2.839-.292,2.884,2.884,0,0,0-.771-1.328,3.04,3.04,0,0,0-2.161-.889,3.109,3.109,0,0,0-1.137.22,2.961,2.961,0,0,0-1.51-1.877,3.045,3.045,0,0,0-2.428-.159v-6.17ZM57.281,59.915H45.1v-2H57.281ZM51.192,31.961a1.007,1.007,0,0,1,1.015,1v7.987h2.03v-5.99a1.007,1.007,0,0,1,1.015-1,.97.97,0,0,1,.72.309.919.919,0,0,1,.294.689v5.99H58.3V36.952a1.007,1.007,0,0,1,1.015-1,.97.97,0,0,1,.72.309.919.919,0,0,1,.294.689v8.806L56.571,55.921H45.814L42.059,45.758V37.951a3.009,3.009,0,0,1,2.03-2.815v5.81h2.03V20.979a1.015,1.015,0,0,1,2.03,0V40.946h2.03V32.959A1.007,1.007,0,0,1,51.192,31.961ZM47.133,17.984a3.029,3.029,0,0,0-3.044,3v1H40.03V10h20.3v11.98H50.177v-1a3.029,3.029,0,0,0-3.044-3Z" transform="translate(-0.355 0.089)"/>
    <path id="Path_4971" data-name="Path 4971" class="cls-1" d="M30.34,36.355H29.325V33.311A1.015,1.015,0,0,0,28.31,32.3h-2.74a11.163,11.163,0,1,0-12.786,0H8.015A1.015,1.015,0,0,0,7,33.311V37.37a1.015,1.015,0,0,0,1.015,1.015H9.03v3.044a1.015,1.015,0,0,0,1.015,1.015h20.3a1.015,1.015,0,0,0,1.015-1.015V37.37A1.015,1.015,0,0,0,30.34,36.355Zm-20.3-13.192A9.133,9.133,0,1,1,19.177,32.3a9.133,9.133,0,0,1-9.133-9.133ZM9.03,36.355v-2.03h2.03v2.03Zm4.059,4.059h-2.03v-2.03h2.03Zm0-6.089h2.03v2.03h-2.03Zm4.059,6.089h-2.03v-2.03h2.03Zm0-6.089h2.03v2.03h-2.03Zm4.059,6.089h-2.03v-2.03h2.03Zm0-6.089h2.03v2.03h-2.03Zm4.059,6.089h-2.03v-2.03h2.03Zm0-6.089H27.3v2.03h-2.03Zm4.059,6.089H27.3v-2.03h2.03Z" transform="translate(0.074 -0.148)"/>
  </g>
</svg>
