<svg xmlns="http://www.w3.org/2000/svg" width="50.925" height="60" viewBox="0 0 50.925 60">
  <defs>
    <style>
      .cls-1 {
        fill: #00afce;
      }
    </style>
  </defs>
  <g id="subscribe" transform="translate(-38.748 -0.001)">
    <path id="Path_7600" data-name="Path 7600" class="cls-1" d="M231.194,299.967h-1.539a.05.05,0,0,1-.05-.049v-2.339a.883.883,0,0,0-1.766,0v2.339a1.818,1.818,0,0,0,1.816,1.816h1.539a2.134,2.134,0,0,1,2.132,2.132v8.024a1.08,1.08,0,0,1-.213.646l-3.431,4.646a.883.883,0,0,0-.173.525v3.5a.883.883,0,1,0,1.766,0V318l3.258-4.412a2.835,2.835,0,0,0,.558-1.7v-8.024A3.9,3.9,0,0,0,231.194,299.967Z" transform="translate(-166.967 -262.085)"/>
    <path id="Path_7601" data-name="Path 7601" class="cls-1" d="M61.013,180.92a.883.883,0,1,0,1.766,0V172.4a3.666,3.666,0,1,0-7.332,0v7.972a3.2,3.2,0,0,0-1.457-.349H53.1a3.219,3.219,0,0,0-2.56,1.269,3.208,3.208,0,0,0-2.119-.8h-.887a3.222,3.222,0,0,0-2.717,1.493,3.205,3.205,0,0,0-1.962-.669h-.887a3.226,3.226,0,0,0-3.223,3.223v7.608a.883.883,0,0,0,1.766,0V184.54a1.458,1.458,0,0,1,1.457-1.457h.887a1.458,1.458,0,0,1,1.457,1.457v.23a.883.883,0,0,0,1.766,0v-1.054a1.458,1.458,0,0,1,1.457-1.457h.887a1.458,1.458,0,0,1,1.457,1.457v1.054a.883.883,0,0,0,1.766,0v-1.054c0-.1-.005-.208-.015-.311a.888.888,0,0,0,.015-.16,1.458,1.458,0,0,1,1.457-1.457h.887a1.458,1.458,0,0,1,1.457,1.457h0v1.524a.883.883,0,0,0,1.766,0V172.4a1.9,1.9,0,1,1,3.8,0v8.52Z" transform="translate(-0.002 -149.044)"/>
    <path id="Path_7602" data-name="Path 7602" class="cls-1" d="M41.039,397.908a2.472,2.472,0,0,1-.525-1.519v-3.442a.883.883,0,0,0-1.766,0v3.442a4.247,4.247,0,0,0,.9,2.609l1.305,1.664v4.68a.883.883,0,1,0,1.766,0v-4.984a.883.883,0,0,0-.188-.545Z" transform="translate(0 -346.224)"/>
    <path id="Path_7603" data-name="Path 7603" class="cls-1" d="M273.732,53.31l-4.6-1.557-2.775-2.775a.883.883,0,0,0-1.249,1.249l2.3,2.3-4.824,4.824a.883.883,0,0,0,1.249,1.249l5.061-5.061,4.274,1.447a.6.6,0,0,1,.232.995L259.207,70.169a.582.582,0,0,1-.446.174.883.883,0,0,0-.074,1.765l.1,0a2.334,2.334,0,0,0,1.666-.691l4.109-4.109a4.146,4.146,0,0,0,5.68-.173l.121-.121a4.152,4.152,0,0,0,.173-5.68l4.109-4.109a2.368,2.368,0,0,0-.915-3.917Zm-4.616,12.457-.121.121a2.382,2.382,0,0,1-3.153.191l3.464-3.464A2.384,2.384,0,0,1,269.117,65.766Z" transform="translate(-193.506 -42.982)"/>
    <path id="Path_7604" data-name="Path 7604" class="cls-1" d="M161.063,6.515a10.022,10.022,0,0,0,1.885,11.523l.026.027a.883.883,0,0,0,1.25-1.247l-.027-.027a8.24,8.24,0,0,1,11.13-12.134.883.883,0,0,0,1.138-1.35A10.015,10.015,0,0,0,165.575,2L164.512.934A3.193,3.193,0,0,0,160,5.449Zm.183-4.332a1.428,1.428,0,0,1,2.018,0l.766.766a9.968,9.968,0,0,0-2.017,2.019l-.768-.768a1.426,1.426,0,0,1,0-2.017Z" transform="translate(-106.264 0)"/>
    <path id="Path_7605" data-name="Path 7605" class="cls-1" d="M270.06,142.295l-.52.52a.883.883,0,0,0,1.249,1.249l.52-.52a.883.883,0,0,0-1.249-1.249Z" transform="translate(-203.543 -125.405)"/>
    <path id="Path_7606" data-name="Path 7606" class="cls-1" d="M93.607,81.3a.883.883,0,0,0,.615-1.517,5.1,5.1,0,0,1,0-7.329.883.883,0,1,0-1.23-1.267,6.861,6.861,0,0,0,0,9.864.88.88,0,0,0,.615.249Z" transform="translate(-46.013 -62.588)"/>
    <path id="Path_7607" data-name="Path 7607" class="cls-1" d="M122.1,96.745a.883.883,0,1,0,1.132-1.356,1.576,1.576,0,0,1,0-2.422.883.883,0,0,0-1.132-1.356,3.342,3.342,0,0,0,0,5.133Z" transform="translate(-72.536 -80.707)"/>
    <path id="Path_7608" data-name="Path 7608" class="cls-1" d="M444.6,71.19a.883.883,0,1,0-1.23,1.267,5.1,5.1,0,0,1,0,7.329.883.883,0,0,0,1.23,1.267,6.861,6.861,0,0,0,0-9.864Z" transform="translate(-357.019 -62.588)"/>
    <path id="Path_7609" data-name="Path 7609" class="cls-1" d="M422.524,91.612a.883.883,0,0,0-1.132,1.356,1.576,1.576,0,0,1,0,2.422.883.883,0,1,0,1.132,1.356,3.342,3.342,0,0,0,0-5.133Z" transform="translate(-337.585 -80.707)"/>
  </g>
</svg>
