<?xml version="1.0" encoding="utf-8"?>
<!-- Generator: Adobe Illustrator 25.0.1, SVG Export Plug-In . SVG Version: 6.00 Build 0)  -->
<svg version="1.1" id="Layer_1" xmlns="http://www.w3.org/2000/svg" xmlns:xlink="http://www.w3.org/1999/xlink" x="0px" y="0px"
	 viewBox="0 0 240.94 240.94" style="enable-background:new 0 0 240.94 240.94;" xml:space="preserve">
<style type="text/css">
	.st0{fill:none;}
</style>
<g>
	<g>
		<path d="M209.4,146.71c-2.1-27.86-26.39-48.75-54.25-46.65c-27.86,2.1-48.75,26.39-46.65,54.25c2.1,27.86,26.39,48.75,54.25,46.65
			C190.61,198.86,211.5,174.57,209.4,146.71z M158.88,117.31c2.69-0.04,5.06,2.3,5.07,5.01c0.02,2.94-2.1,5.07-5.08,5.08
			c-2.83,0.01-4.98-2.15-4.98-5C153.89,119.66,156.15,117.35,158.88,117.31z M134.83,125.92c1.26,0.9,2.55,1.77,3.78,2.71
			c7.76,5.91,15.53,11.82,23.26,17.77c2.09,1.61,2.61,3.74,1.7,6.04c-0.81,2.06-2.81,3.38-5.17,3.01c-1.13-0.18-2.51-0.76-3.18-1.62
			c-6.87-8.93-13.61-17.95-20.39-26.95c-0.15-0.2-0.22-0.45-0.33-0.67C134.62,126.12,134.72,126.02,134.83,125.92z M163.86,183.32
			c-16.69,2.62-33.26-8.31-37.19-25.14c-1.6-6.84-1.06-13.47,1.47-19.97c0.8-2.06,2.26-2.87,3.97-2.3c1.85,0.62,2.71,2.38,2.04,4.44
			c-1.12,3.45-2.03,6.9-2,10.58c0.1,12.87,10.11,24.31,22.86,26.01c1.33,0.18,2.68,0.28,4.01,0.42
			c15.63-0.12,28.26-13.97,26.56-29.4c-0.95-8.66-5.19-15.4-12.57-20.12c-0.86-0.55-1.77-1.06-2.53-1.73
			c-1.27-1.12-1.43-2.9-0.52-4.26c0.89-1.34,2.33-1.71,3.99-0.83c9.48,5.03,15.37,12.79,17.53,23.34
			C195.05,161.71,183.37,180.26,163.86,183.32z"/>
	</g>
	<g>
		<path class="st0" d="M119.31,104.89c-18.73,0-37.27,0-55.92,0c0,4.17,0,7.96,0,11.9c15.11,0,30.1,0,45.08,0
			C111.51,112.35,115.17,108.35,119.31,104.89z"/>
		<path class="st0" d="M63.39,133.92c0,4.17,0,7.96,0,11.9c11.73,0,23.39,0,35.04,0c0.28-4.09,0.97-8.07,2.06-11.9
			C88.12,133.92,75.77,133.92,63.39,133.92z"/>
		<path class="st0" d="M144.71,75.87c-27.52,0-54.29,0-81.32,0c0,4.17,0,7.96,0,11.9c27.29,0,54.21,0,81.32,0
			C144.71,83.62,144.71,79.97,144.71,75.87z"/>
		<path d="M98.43,145.82c-11.64,0-23.3,0-35.04,0c0-3.94,0-7.73,0-11.9c12.38,0,24.72,0,37.09,0c1.74-6.16,4.43-11.93,7.98-17.12
			c-14.98,0-29.97,0-45.08,0c0-3.94,0-7.73,0-11.9c18.65,0,37.19,0,55.92,0c9.05-7.56,20.42-12.51,33.07-13.46
			c8.54-0.64,16.76,0.62,24.32,3.36V75.01c0-19.42-15.75-35.17-35.17-35.17H66.57c-19.42,0-35.17,15.75-35.17,35.17v77.49
			c0,19.42,15.75,35.17,35.17,35.17h45.6c-7.74-9.11-12.82-20.61-13.78-33.44C98.18,151.38,98.24,148.58,98.43,145.82z M63.39,75.87
			c27.03,0,53.8,0,81.32,0c0,4.1,0,7.74,0,11.9c-27.11,0-54.03,0-81.32,0C63.39,83.84,63.39,80.05,63.39,75.87z"/>
	</g>
</g>
</svg>
